<?xml version="1.0" encoding="UTF-8" standalone="no"?>
<!DOCTYPE svg PUBLIC "-//W3C//DTD SVG 1.1//EN" "http://www.w3.org/Graphics/SVG/1.1/DTD/svg11.dtd">
<svg xmlns="http://www.w3.org/2000/svg">
<metadata/>
<defs>
<font id="trelliconsregular" horiz-adv-x="1920">
<font-face units-per-em="1920" ascent="1536" descent="-384"/>
<missing-glyph horiz-adv-x="500"/>
<glyph/>
<glyph/>
<glyph unicode=""/>
<glyph unicode="◼" horiz-adv-x="500" d="M0 0z"/>
<glyph unicode="" d="M1552 995l-5 -15q103 -33 191.5 -123t135 -191.5t46.5 -183.5q0 -22 -10 -41t-31.5 -33t-44.5 -25.5t-62 -19.5t-70 -14t-81 -9.5t-83 -5.5t-89 -3t-85.5 -1h-84.5q-16 28 -43.5 71.5t-97.5 136t-122 136.5q36 39 55.5 102t20 139t-28.5 165.5t-87 170.5q-4 24 -4 48 q0 155 108 263.5t263 108.5q153 0 261.5 -109t108.5 -263q0 -92 -43.5 -172.5t-117.5 -131.5zM823 639q94 -41 173.5 -130.5t121 -183.5t41.5 -166q0 -43 -119.5 -72t-289.5 -36t-340.5 0t-290 36t-119.5 72q0 72 41.5 165.5t121.5 183.5t175 131q-128 112 -128 282 q0 153 108 261t261 108q155 0 264 -108t109 -261q0 -169 -129 -282z"/>
<glyph unicode="" d="M960 720q-130 0 -240.5 64.5t-175 175t-64.5 240.5t64.5 240.5t175 175t240.5 64.5t240.5 -64.5t175 -175t64.5 -240.5t-64.5 -240.5t-175 -175t-240.5 -64.5zM1320 670q111 -30 199 -85t139 -115t84.5 -128.5t45.5 -120.5t12 -95q0 -55 -13 -73q-25 -33 -145 -43 q-119 -10 -682 -10t-681 10q-120 10 -145 43q-14 19 -14 73q0 35 9 77.5t28.5 96.5t56.5 107.5t87.5 104t128 92.5t170.5 66q70 -49 109.5 -71.5t104.5 -40.5t146 -18q116 0 186.5 29t173.5 101z"/>
<glyph unicode="" d="M0 120v1440q0 118 61 179t179 61h1440q118 0 179 -61t61 -179v-1440q0 -118 -61 -179t-179 -61h-1440q-118 0 -179 61t-61 179zM720 1560h-360q-58 0 -89 -31t-31 -89v-1080q0 -58 31 -89t89 -31h360q58 0 89 31t31 89v1080q0 58 -31 89t-89 31zM1560 1560h-360 q-58 0 -89 -31t-31 -89v-720q0 -58 31 -89t89 -31h360q58 0 89 31t31 89v720q0 58 -31 89t-89 31z"/>
<glyph unicode="" d="M0 1320v240q0 60 60 60h1800q60 0 60 -60v-240q0 -60 -60 -60h-1800q-60 0 -60 60zM0 720v240q0 60 60 60h1800q60 0 60 -60v-240q0 -60 -60 -60h-1800q-60 0 -60 60zM0 120v240q0 60 60 60h1800q60 0 60 -60v-240q0 -60 -60 -60h-1800q-60 0 -60 60z"/>
<glyph unicode="" d="M0 130v1420q0 58 31 89t89 31h1680q58 0 89 -31t31 -89v-1420q0 -58 -31 -89t-89 -31h-1680q-58 0 -89 31t-31 89zM1620 1430h-1320q-60 0 -60 -60v-580q0 -60 60 -60h1320q60 0 60 60v580q0 60 -60 60zM1140 490h-840q-60 0 -60 -60v-120q0 -60 60 -60h840q60 0 60 60 v120q0 60 -60 60zM1620 490h-120q-60 0 -60 -60v-120q0 -60 60 -60h120q60 0 60 60v120q0 60 -60 60z"/>
<glyph unicode="" d="M390 540q0 72 10 167.5t32 210.5t53.5 229t79 221.5t103.5 190t131.5 132t159.5 49.5t160 -49.5t132.5 -132t104 -190t79 -221.5t53.5 -229t32 -210.5t10 -167.5q90 0 165 -73t75 -167h-1620q0 94 75 167t165 73zM630 540h660q0 74 -11 185.5t-37 248t-62 252.5 t-94.5 195t-126.5 79t-125.5 -79t-94 -195t-62 -252.5t-36.5 -248t-11 -185.5zM960 -60q-133 0 -216.5 60.5t-83.5 179.5h600q0 -119 -84 -179.5t-216 -60.5z"/>
<glyph unicode="" d="M1247 666q-9 -19 -39 -31.5t-60.5 -17.5t-55 -19t-24.5 -37v-427q0 -26 108 -77t216 -89l108 -38v-50h-1080v50q432 135 432 192v439q0 23 -23.5 36.5t-53 18t-59 15.5t-38.5 30q-2 4 -6 14t-7 16q-91 7 -164 19t-131 34t-102.5 40.5t-77 58t-55 66t-37 84.5t-22.5 93 t-11.5 111.5t-4 122t-0.5 140.5h454l-44 340h985q-18 -148 -46 -340h451q0 -97 -0.5 -143t-4 -123.5t-11.5 -112.5t-22.5 -93t-37 -84t-55 -65t-76.5 -57t-102 -39.5t-131 -33t-163 -18.5q-3 -7 -10 -25zM540 1281h-301q0 -65 0.5 -94.5t5 -77t14 -68t27.5 -52t45 -45 t66.5 -31t93 -26t123.5 -14.5q-34 150 -74 408zM1679 1281h-296q-44 -272 -75 -407q79 8 137 22t98.5 28.5t66.5 45.5t40 53t20.5 72.5t7.5 82.5t1 103z"/>
<glyph unicode="" d="M960 -120q277 0 400 322q74 44 150.5 28t150 -72.5t131.5 -118t93 -110.5l35 -49q0 20 -1 54.5t-11 128.5t-27.5 175t-56 170t-90.5 137q-35 32 -78 58t-80 39.5t-68.5 22.5t-49.5 12l-19 3q0 14 -0.5 39t-5 101.5t-12 150.5t-24.5 175t-40 187.5t-60 175t-83 151 t-111.5 101.5t-142.5 39q-98 0 -177.5 -62t-128.5 -160.5t-85 -218t-52.5 -239t-26 -218t-10.5 -160.5l-1 -62q-7 -1 -19 -3t-47.5 -11.5t-69.5 -23t-78 -39.5t-79 -58q-52 -48 -90.5 -134.5t-56 -175t-27.5 -170t-11 -133.5l-1 -52q4 6 11.5 16.5t31.5 42t49 61t62.5 67 t73.5 67.5t80 55.5t84.5 37t84.5 6.5t83 -31q124 -322 400 -322zM960 1640q56 0 104 -76t76 -184t43 -210t15 -169q0 -37 -11 -65.5t-32 -45.5t-42 -27.5t-52.5 -15t-51.5 -5.5t-49 -1q-35 0 -59.5 1.5t-61.5 10t-60 24.5t-40.5 47.5t-17.5 76.5q0 67 15.5 169t43.5 210 t76 184t104 76z"/>
<glyph unicode="" d="M1920 1027q0 126 -64.5 236.5t-183.5 194t-303 131.5t-409 48q-450 0 -705 -162.5t-255 -447.5q0 -126 90 -261t241 -209q20 -10 31 -67t17 -130t15 -145.5t32.5 -122t62.5 -49.5q45 0 96 27.5t95.5 68.5t93.5 89t90 89t85.5 68.5t80.5 27.5q449 0 669.5 161t220.5 453z M1680 1026q0 -70 -43.5 -135.5t-125.5 -119t-215 -86t-296 -32.5q-52 0 -106.5 -30.5t-99.5 -74t-85.5 -87t-77.5 -74t-64 -30.5q-14 0 -16 34t1 85.5t3 104.5t-17 98t-54 59q-78 31 -137 90.5t-83 111t-24 86.5q0 154 199.5 262.5t520.5 108.5q328 0 524 -108t196 -263z "/>
<glyph unicode="" d="M143 664l984 1061q40 44 85 4l618 -569q43 -40 3 -85l-984 -1061q-39 -42 -177.5 -53.5t-277.5 9t-182 60.5q-32 29 -59.5 120.5t-39.5 193t-5.5 195t35.5 125.5zM417 249q73 -68 172.5 -63.5t166.5 77.5q68 73 63.5 172.5t-77.5 166.5q-73 68 -172.5 63.5t-166.5 -77.5 q-68 -73 -63.5 -172.5t77.5 -166.5z"/>
<glyph unicode="" d="M810 -163q38 0 62 11q80 18 160.5 71.5t136.5 127.5l660 798q58 71 79.5 172.5t5.5 208.5t-77.5 216.5t-161.5 189.5q-97 82 -215 121t-226 33t-203 -47.5t-152 -112.5l-858 -1033q-23 -29 -17.5 -72.5t34.5 -66.5q29 -28 70.5 -24.5t65.5 32.5l850 1042q29 35 87.5 57.5 t131 27.5t158.5 -22t159 -87q71 -60 112.5 -139t49 -150t-4.5 -131.5t-42 -92.5l-659 -796q-74 -109 -191 -132q-101 -34 -214 54q-92 95 -92 200q0 93 92 216l460 558q27 29 75.5 33.5t76.5 -18.5q29 -23 34 -75t-18 -86l-460 -551q-22 -35 -17.5 -74.5t33.5 -62.5 q29 -24 71.5 -19t65.5 34l460 558q74 87 61.5 217.5t-99.5 210.5q-91 70 -226 56t-203 -100l-467 -559q-130 -182 -130 -329q-13 -220 168 -355q69 -63 151 -92t163 -18z"/>
<glyph unicode="" d="M0 1380v120q0 60 60 60h120q60 0 60 -60v-120q0 -60 -60 -60h-120q-60 0 -60 60zM480 1380v120q0 60 60 60h1320q60 0 60 -60v-120q0 -60 -60 -60h-1320q-60 0 -60 60zM0 780v120q0 60 60 60h120q60 0 60 -60v-120q0 -60 -60 -60h-120q-60 0 -60 60zM480 780v120 q0 60 60 60h1320q60 0 60 -60v-120q0 -60 -60 -60h-1320q-60 0 -60 60zM0 180v120q0 60 60 60h120q60 0 60 -60v-120q0 -60 -60 -60h-120q-60 0 -60 60zM480 180v120q0 60 60 60h1320q60 0 60 -60v-120q0 -60 -60 -60h-1320q-60 0 -60 60z"/>
<glyph unicode="" d="M600 801v-760q60 0 181 -43t164 -51q104 -19 252.5 -20t278.5 21.5t161 65.5q18 26 13 61t-15 55.5t2 41.5q9 12 34.5 20.5t51 14t50.5 24.5t36 51q9 33 3 56t-20.5 43.5t-29.5 35.5t-23.5 32t-2.5 32q6 16 28 31t44.5 26.5t41 37.5t18.5 62q0 27 -11 49t-27 35 t-31.5 24.5t-26.5 24t-11 26.5q0 13 17 28.5t37 29.5t36.5 37t16.5 48q-2 56 -33 82.5t-99 51.5q-53 20 -200 22t-267 -6l-120 -7q145 205 166 286q12 45 20.5 99t5.5 116.5t-26 90.5q-21 28 -44.5 46t-53 25.5t-56.5 -9.5q-31 -18 -43.5 -82t-20.5 -139.5t-23 -104.5 q-25 -46 -89 -116.5t-136.5 -143.5t-98.5 -105q-29 -35 -59 -97t-52 -103.5t-39 -44.5zM120 868v-894h240v894h-240z"/>
<glyph unicode="" d="M960 1740q196 0 374 -76t306 -204t204 -306t76 -374t-76 -373.5t-204 -306t-306 -204.5t-374 -76t-374 76t-306 204.5t-204 306t-76 373.5t76 374t204 306t306 204t374 76zM960 60q196 0 361.5 96.5t262 262t96.5 361.5t-96.5 361.5t-262 262t-361.5 96.5t-361.5 -96.5 t-262 -262t-96.5 -361.5t96.5 -361.5t262 -262t361.5 -96.5zM1080 810l188 -176q51 -49 1 -101l-64 -69q-51 -51 -104 0l-260 246l3 3h-4l2 521q0 72 72 72h93q72 0 72 -72z"/>
<glyph unicode="" d="M280 1474l135 135q31 31 74 31h1146q40 0 49 -23t-19 -51l-135 -135q-31 -31 -74 -31h-1146q-40 0 -49 23t19 51zM1680 224v953q0 43 31 74l135 135q28 28 51 19t23 -49v-953q0 -43 -31 -74l-135 -135q-28 -28 -51 -19t-23 49zM1440 -60v1140q0 25 -17.5 42.5t-42.5 17.5 h-1320q-25 0 -42.5 -17.5t-17.5 -42.5v-1140q0 -25 17.5 -42.5t42.5 -17.5h1320q26 0 43 17t17 43zM1200 840v-211q0 -25 -18 -42.5t-42 -17.5h-840q-25 0 -42.5 17.5t-17.5 42.5v211q0 24 17.5 42t42.5 18h840q24 0 42 -18t18 -42z"/>
<glyph unicode="" d="M0 1260v360q0 60 60 60h360q60 0 60 -60v-360q0 -60 -60 -60h-360q-60 0 -60 60zM720 1500v120q0 60 60 60h1080q60 0 60 -60v-120q0 -60 -60 -60h-1080q-60 0 -60 60zM720 1020v120q0 60 60 60h600q60 0 60 -60v-120q0 -60 -60 -60h-600q-60 0 -60 60zM0 300v360 q0 60 60 60h360q60 0 60 -60v-360q0 -60 -60 -60h-360q-60 0 -60 60zM720 540v120q0 60 60 60h1080q60 0 60 -60v-120q0 -60 -60 -60h-1080q-60 0 -60 60zM720 60v120q0 60 60 60h600q60 0 60 -60v-120q0 -60 -60 -60h-600q-60 0 -60 60z"/>
<glyph unicode="" d="M1920 841q-5 8 -13.5 21t-38.5 54t-63.5 80.5t-87 93.5t-110 100.5t-132 94t-152.5 80.5t-172 54t-191 21t-190.5 -20.5t-173 -55t-152 -79.5t-132 -95t-109.5 -99.5t-87.5 -94.5t-63 -79.5t-39.5 -54.5l-13 -21q8 -13 22 -34.5t63 -84t104 -119t141.5 -126t177 -119.5 t210.5 -84t242 -34q96 0 190.5 20.5t173 55.5t152 80t132 94.5t109.5 99.5t87.5 95t63 80t39.5 55zM960 1260q175 0 297.5 -122.5t122.5 -296.5q0 -177 -122.5 -299t-297.5 -122t-297.5 122t-122.5 299q0 174 122.5 296.5t297.5 122.5z"/>
<glyph unicode="" d="M1323 1728q87 0 162.5 -31.5t127 -84t84 -118t40.5 -135.5q4 -42 0.5 -79.5t-12.5 -69t-18.5 -54.5t-16.5 -36l-7 -12q6 -3 17 -10.5t50.5 -48.5t83.5 -102q42 -59 60 -119t16 -91l-3 -31q-9 17 -25 45t-58.5 88.5t-76.5 91.5l-103 78q-18 -4 -118 -58q-42 -22 -86.5 -35 t-67.5 -14l-24 -2l-54 -355q40 -24 61 -77q14 -37 17 -82.5t-1 -72.5l-4 -27l67 -28q1 9 2.5 23.5t8.5 51.5t16.5 65t26 51t36.5 22q17 0 26 -28t9 -56v-28q5 6 13 16t31.5 34t44 41t43.5 27.5t37 2.5q14 -10 12 -33.5t-14 -56t-26.5 -61.5t-25.5 -49l-12 -20q13 4 33 9 t57.5 5.5t45.5 -16.5q16 -32 -48.5 -85.5t-147 -93t-118.5 -39.5q-28 0 -57 16.5t-46 37.5q-5 9 -10 21.5t-7 20.5l-3 9l-83 24q-50 -17 -101 -17q-23 0 -51 4t-44 8l-16 5q-5 -8 -13 -21t-33.5 -49.5t-51.5 -69.5t-63 -71t-71 -63q-20 -15 -43 -15q-41 2 -86 35 q-19 16 -28 40t-12 28q-114 147 -380 244q-136 53 -211.5 117t-58.5 111q16 48 50 97.5t61 75.5l26 26q-1 15 -2 40.5t5.5 89.5t23.5 110q99 269 296 349q52 21 126.5 35.5t129.5 31t92 49.5q21 19 45 57.5t44.5 77.5t56.5 82.5t79 76t114.5 54t160.5 21.5z"/>
<glyph unicode="" d="M1603 990h257q60 0 60 -61v-179q0 -60 -60 -60l-257 1q-23 -102 -82 -200l181 -181q43 -43 0 -85l-127 -127q-42 -43 -85 0l-181 181q-94 -57 -199 -82v-257q0 -60 -61 -60h-179q-60 0 -60 60l1 257q-102 23 -200 82l-181 -181q-43 -43 -85 0l-127 127q-43 42 0 85 l181 181q-57 94 -82 199h-257q-60 0 -60 61v179q0 60 60 60h257q26 108 82 199l-181 182q-44 42 0 84l127 127q43 42 85 0l181 -182q91 57 199 83v257q0 60 61 60h179q60 0 60 -60v-257q105 -25 199 -82l181 181q43 43 85 0l127 -127q43 -42 0 -85l-181 -181q57 -94 82 -199 zM960 420q174 0 297 123t123 297t-123 297t-297 123t-297 -123t-123 -297t123 -297t297 -123z"/>
<glyph unicode="" d="M1928 780q0 196 -76 373.5t-204.5 306t-306 204.5t-373.5 76t-374 -76t-306 -204.5t-204 -306t-76 -373.5t76 -373.5t204 -306t306 -204.5t374 -76t373.5 76t306 204.5t204.5 306t76 373.5zM981 1468q66 0 111.5 -46t45.5 -111q0 -68 -45 -113.5t-112 -45.5 q-65 0 -111.5 46.5t-46.5 111.5q0 66 47.5 112t110.5 46zM1039 1084h81v-634q0 -55 12.5 -66t70.5 -11h47v-167h-532v167h46q54 0 68 9.5t14 54.5v410h-128v162q187 8 321 75z"/>
<glyph unicode="" d="M1920 953q0 164 -60.5 309t-164.5 247.5t-249 162t-308 59.5q-164 0 -309 -58.5t-249.5 -159.5t-165 -244t-60.5 -305q0 -208 96 -404q12 -20 -94 -128t-218 -206l-111 -98q-26 -22 -27 -53.5t22 -54.5l177 -178q24 -23 56.5 -22t55.5 26l194 205q218 227 236 218 q195 -97 405 -97q216 0 394 103.5t279 282.5t101 395zM1139 413q-147 0 -271.5 72.5t-197 197t-72.5 271.5q0 146 72.5 270t197 196t271.5 72q109 0 208.5 -43t171.5 -115t115 -171.5t43 -208.5q0 -147 -72 -271.5t-196 -197t-270 -72.5z"/>
<glyph unicode="" d="M1376 1754l537 -480l-219 -11l-644 -689l-26 -446l-370 371l-560 -561q-17 -17 -35 -20t-30.5 5.5t-20 21.5t-4.5 31.5t18 33.5l560 561l-370 371l446 23q1 0 1 2l688 643h1l28 143v1z"/>
<glyph unicode="" d="M960 -120q-196 0 -374 76t-306 204.5t-204 306t-76 373.5t76 374t204 306t306 204t374 76t374 -76t306 -204t204 -306t76 -374t-76 -373.5t-204 -306t-306 -204.5t-374 -76zM960 120q196 0 361.5 96.5t262 262t96.5 361.5t-96.5 361.5t-262 262t-361.5 96.5t-361.5 -96.5 t-262 -262t-96.5 -361.5t96.5 -361.5t262 -262t361.5 -96.5zM1320 1051h-717l-1 -1l358 -646l362 646q0 1 -2 1z"/>
<glyph unicode="" d="M1189 840l492 -492q42 -42 0 -84l-145 -145q-42 -42 -84 0l-492 492l-492 -492q-42 -42 -84 0l-145 145q-43 42 0 85l491 491l-492 492q-42 42 0 84l146 146q42 42 84 0l492 -492l491 491q43 43 85 0l145 -145q42 -42 0 -84z"/>
<glyph unicode="" d="M869 840l624 -625q41 -43 0 -84l-158 -158q-42 -42 -84 0l-824 825q-42 42 0 84l824 825q42 42 84 0l158 -158q42 -42 0 -84z"/>
<glyph unicode="" d="M669 1707l824 -824q20 -20 20 -42q0 -23 -20 -43l-824 -824q-42 -42 -84 0l-158 158q-42 42 0 84l625 625l-625 624q-42 42 0 84l158 158q42 42 84 0z"/>
<glyph unicode="" d="M1140 1020h600q60 0 60 -60v-240q0 -60 -60 -60h-600v-600q0 -60 -60 -60h-240q-60 0 -60 60v600h-600q-60 0 -60 60v240q0 60 60 60h600v600q0 60 60 60h240q60 0 60 -60v-600z"/>
<glyph unicode="" d="M120 660v360q0 60 60 60h1560q60 0 60 -60v-360q0 -60 -60 -60h-1560q-60 0 -60 60z"/>
<glyph unicode="" d="M738 0q49 0 107 30t74 60q445 871 908 1158q44 28 67.5 66t23.5 75.5t-13.5 75t-42.5 65t-63.5 44t-78 13.5t-83.5 -28q-290 -180 -524.5 -445.5t-383.5 -581.5q-80 92 -169 177.5t-138 124.5l-49 40q-125 104 -239 68q-78 -25 -114 -102q-40 -85 0 -168q23 -46 69 -79 q115 -83 215 -177t159 -164t109.5 -129.5t90 -91t75.5 -31.5z"/>
<glyph unicode="" d="M1201 1558q149 -12 282 -78t229 -169t152 -241.5t56 -289.5q0 -212 -104.5 -391.5t-284 -284t-391.5 -104.5t-391.5 104.5t-284 284t-104.5 391.5h-256q-40 0 -49 23t19 51l394 394q42 42 84 0l394 -394q28 -28 19 -51t-49 -23h-256q0 -130 64.5 -240.5t175 -175 t240.5 -64.5t240.5 64.5t175 175t64.5 240.5q0 183 -121.5 319t-300.5 158q-58 6 -58 61v181q0 30 16 45.5t45 13.5z"/>
<glyph unicode="" d="M1114 1658l765 -765q42 -42 0 -84l-765 -765q-42 -42 -84 0l-128 128q-42 42 0 84l445 445h-1287q-60 0 -60 60v180q0 60 60 60h1287l-445 445q-42 42 0 84l128 128q42 42 84 0z"/>
<glyph unicode="" d="M1324 1494l128 128q42 42 84 0l206 -206q42 -42 0 -84l-128 -128zM1140 1310l290 -290l-834 -834l-375 -85l85 375z"/>
<glyph unicode="" d="M1680 0h-1436q-26 0 -43 16.5t-17 43.5l-4 759q0 26 17 43t43 17h130q0 103 12 196.5t37.5 186t71 166.5t108 131.5t153.5 89t202 31.5q133 0 236.5 -44.5t168.5 -118t106.5 -179t58 -217t16.5 -242.5h140q26 0 43 -17.5t17 -43.5v-758q0 -27 -17 -43.5t-43 -16.5z M610 879h690q0 65 -3.5 119t-13 113t-25 105.5t-42.5 89.5t-62.5 71.5t-86 45.5t-113.5 17q-62 0 -113 -18t-86.5 -48t-62 -74.5t-42 -91.5t-25 -106t-12.5 -111t-3 -112z"/>
<glyph unicode="" d="M960 1800q195 0 373 -76t306.5 -204.5t204.5 -306.5t76 -373t-76 -373t-204.5 -306.5t-306.5 -204.5t-373 -76t-373 76t-306.5 204.5t-204.5 306.5t-76 373t76 373t204.5 306.5t306.5 204.5t373 76zM1529 1277q-86 110 -207.5 182.5t-260.5 93.5l5 -395q242 18 463 119z M840 1159v391q-136 -23 -252.5 -93.5t-198.5 -177.5q215 -99 451 -120zM285 1091q-45 -121 -45 -251t45 -251q259 144 555 172v158q-296 28 -555 172zM1069 918l2 -156q305 -25 564 -173q45 121 45 251q0 131 -46 251q-264 -150 -565 -173zM1074 521l5 -391q136 22 253 93 t200 179q-220 101 -458 119zM389 401q82 -107 198.5 -177.5t252.5 -93.5v391q-236 -21 -451 -120z"/>
<glyph unicode="" d="M106 1800h1708q44 0 75 -31t31 -75v-1708q0 -44 -31 -75t-75 -31h-489v743h249l38 290h-287v185q0 70 29.5 105.5t113.5 35.5h154v259q-81 12 -224 12q-169 0 -270.5 -100.5t-101.5 -282.5v-214h-251v-290h251v-743h-920q-44 0 -75 31t-31 75v1708q0 44 31 75t75 31z"/>
<glyph unicode="" d="M1382 646q135 -95 188 -196t53 -253q0 -95 -45.5 -183t-128.5 -158.5t-214 -113t-289 -42.5q-193 0 -352.5 48.5t-256.5 142t-97 213.5q0 94 53 185t142 160t216 111.5t266 42.5h119q-93 93 -93 188q0 55 34 128q-8 0 -30 -3.5t-32 -3.5q-154 0 -275.5 66t-187 179 t-65.5 251q0 131 86 245t225 179.5t292 65.5h690l-156 -93h-218q69 0 121 -62.5t76 -150t24 -178.5q0 -203 -194 -358q-81 -63 -106 -101t-25 -94q0 -43 59.5 -107.5t120.5 -107.5zM1015 992q133 -5 210.5 115.5t54.5 294.5q-22 176 -132.5 300.5t-245.5 126.5 q-133 4 -211 -114t-55 -291q23 -175 134 -302t245 -130zM946 -190q135 0 234.5 27.5t156.5 77.5t83.5 113t26.5 141q0 27 -9 72q-6 24 -15.5 44t-28 41.5t-31 35t-43 36.5t-44.5 33t-56 38.5t-57 39.5q-78 29 -172 29q-130 0 -246.5 -47.5t-187 -131.5t-70.5 -181 q0 -152 131 -260t328 -108z"/>
<glyph unicode="" d="M1920 1376q-82 -122 -197 -203q2 -36 2 -53q0 -158 -46 -316t-141 -303t-226 -256.5t-315 -178t-394 -66.5q-328 0 -603 177q64 -6 94 -6q274 0 488 169q-128 3 -228.5 79.5t-139.5 194.5q34 -7 75 -7q52 0 102 13q-135 28 -224.5 136t-89.5 250v6q83 -47 178 -50 q-81 55 -128 141.5t-47 187.5q0 106 53 196q149 -181 359.5 -289.5t452.5 -120.5q-9 37 -9 90q0 163 115 278t278 115q169 0 287 -124q138 28 251 96q-22 -68 -67.5 -125t-106.5 -94q114 14 227 63z"/>
<glyph unicode="" d="M1440 1380v-180h180v-1320h-1320v1320h180v180q0 117 61.5 178.5t178.5 61.5h480q117 0 178.5 -61.5t61.5 -178.5zM660 1200h600v177q0 60 -60 60h-480q-60 0 -60 -60v-177zM0 0v1080q0 58 31 89t89 31h60v-1320h-60q-58 0 -89 31t-31 89zM1740 1200h60q58 0 89 -31 t31 -89v-1080q0 -58 -31 -89t-89 -31h-60v1320zM840 220v680q0 26 -17 43t-43 17h-240q-26 0 -43 -17t-17 -43v-680q0 -26 17 -43t43 -17h240q26 0 43 17t17 43zM1440 480v420q0 26 -17 43t-43 17h-240q-26 0 -43 -17t-17 -43v-419q0 -26 17.5 -43.5t43.5 -17.5h239 q26 0 43 17t17 43z"/>
<glyph unicode="" d="M1140 1460v180q0 60 60 60h480q60 0 60 -60v-180h-600zM0 122v1096q0 53 34.5 87.5t87.5 34.5h1676q53 0 87.5 -34.5t34.5 -87.5v-1096q0 -53 -34.5 -87.5t-87.5 -34.5h-1676q-53 0 -87.5 34.5t-34.5 87.5zM960 250q175 0 297.5 123t122.5 297t-122.5 297t-297.5 123 t-297.5 -123t-122.5 -297t122.5 -297t297.5 -123z"/>
<glyph unicode="" d="M120 1770h1680q60 0 90 -32t30 -88v-1620q0 -54 -32.5 -87t-87.5 -33h-1680q-57 0 -88.5 30.5t-31.5 89.5v1620q0 47 34 83.5t86 36.5zM330 1650q-63 0 -106.5 -43.5t-43.5 -106.5q0 -62 43.5 -106t106.5 -44q62 0 106 44t44 106q0 63 -44 106.5t-106 43.5zM1590 1650 q-63 0 -106.5 -43.5t-43.5 -106.5q0 -62 43.5 -106t106.5 -44q62 0 106 44t44 106q0 63 -44 106.5t-106 43.5zM1800 30v1200h-1680v-1200h1680zM480 150v260h-240v120h240v220h-240v120h240v240h120v-240h300v240h120v-240h300v240h120v-240h240v-120h-240v-220h240v-120 h-240v-260h-120v260h-300v-260h-120v260h-300v-260h-120zM600 750v-220h300v220h-300zM1320 750h-300v-220h300v220z"/>
<glyph unicode="" horiz-adv-x="1913" d="M846 -120l1067 1065q-20 177 -103 334t-209 270t-293 178.5t-348 65.5q-195 0 -373 -76t-306.5 -204.5t-204.5 -306.5t-76 -373q0 -181 65.5 -348t178.5 -292.5t269.5 -208.5t332.5 -104zM1673 1005l-888 -885q-29 465 188.5 680.5t699.5 204.5z"/>
<glyph unicode="" d="M1800 1200q50 0 85 -35t35 -85t-35 -85t-85 -35q-26 0 -47 10q-193 -463 -193 -561v-229h-1199l-1 229q0 97 -194 560q-21 -9 -46 -9q-50 0 -85 35t-35 85t35 85t85 35t85 -35t35 -85q0 -37 -20 -66q360 -234 460 -234q98 0 250 544q-39 10 -64.5 42t-25.5 74q0 50 35 85 t85 35t85 -35t35 -85q0 -39 -22.5 -70t-57.5 -43q32 -87 65 -168t76.5 -174t85.5 -149t73 -56q97 0 404 228q-24 32 -24 72q0 50 35 85t85 35zM959 360q51 0 86 35.5t35 85.5q0 49 -35 84t-86 35q-50 0 -84.5 -35t-34.5 -84q0 -50 34.5 -85.5t84.5 -35.5zM628 360 q38 0 65 27t27 61q0 38 -27 65t-65 27q-34 0 -61 -27t-27 -65q0 -34 27 -61t61 -27zM1292 360q35 0 61.5 27t26.5 60q0 39 -26 66t-62 27q-37 0 -64.5 -27t-27.5 -66q0 -33 28 -60t64 -27z"/>
<glyph unicode="" d="M960 1706l-297 -601l-663 -96l480 -468l-113 -661l593 312l593 -312l-113 661l480 468l-663 96zM960 1241l148 -333l325 -25l-226 -228l71 -374l-318 207l-339 -227l131 401l-285 221l350 19z"/>
<glyph unicode="" d="M0 1800v-240l800 -720v-720l360 -240v960l760 720v240q-960 -360 -1920 0z"/>
<glyph unicode="" d="M1860 -120h-1800q-25 0 -42.5 17.5t-17.5 42.5v1620q0 25 17.5 42.5t42.5 17.5h1800q25 0 42.5 -17.5t17.5 -42.5v-1620q0 -25 -17.5 -42.5t-42.5 -17.5zM300 540h1320q25 0 42.5 17.5t17.5 42.5v721q0 24 -17.5 41.5t-42.5 17.5h-1320q-25 0 -42.5 -17.5t-17.5 -42.5 v-720q0 -25 17.5 -42.5t42.5 -17.5z"/>
<glyph unicode="" d="M1800 1740h-540q-60 0 -60 -60v-120q0 -60 60 -60h220l-558 -558q-42 -42 0 -84l116 -116q42 -42 84 0l558 558v-220q0 -60 60 -60h120q60 0 60 60v540q0 58 -31 89t-89 31zM1500 780h120q60 0 60 -60v-850q0 -50 -50 -50h-1580q-50 0 -50 50v1570q0 60 60 60h840 q60 0 60 -60v-120q0 -60 -60 -60h-600q-60 0 -60 -60v-1090q0 -50 50 -50h1100q50 0 50 50v610q0 60 60 60z"/>
<glyph unicode="" d="M0 1500v120q0 60 60 60h1800q60 0 60 -60v-120q0 -60 -60 -60h-1800q-60 0 -60 60zM0 1020v120q0 60 60 60h1800q60 0 60 -60v-120q0 -60 -60 -60h-1800q-60 0 -60 60zM0 540v120q0 60 60 60h1800q60 0 60 -60v-120q0 -60 -60 -60h-1800q-60 0 -60 60zM0 60v120 q0 60 60 60h1080q60 0 60 -60v-120q0 -60 -60 -60h-1080q-60 0 -60 60z"/>
</font>
</defs>
</svg>
